<?xml version="1.0" standalone="no"?>
<!DOCTYPE svg PUBLIC "-//W3C//DTD SVG 20010904//EN"
 "http://www.w3.org/TR/2001/REC-SVG-20010904/DTD/svg10.dtd">
<svg version="1.0" xmlns="http://www.w3.org/2000/svg"
 width="256.000000pt" height="256.000000pt" viewBox="0 0 256.000000 256.000000"
 preserveAspectRatio="xMidYMid meet">
<metadata>
Created by potrace 1.14, written by Peter Selinger 2001-2017
</metadata>
<g transform="translate(0.000000,256.000000) scale(0.100000,-0.100000)"
fill="#000000" stroke="none">
<path d="M0 1280 l0 -1280 419 0 c269 0 422 4 426 10 9 14 62 13 67 -2 2 -6 9
-9 15 -7 7 3 7 18 -2 52 -6 26 -10 47 -8 47 2 0 45 -23 95 -50 50 -28 98 -50
107 -50 9 0 -9 14 -39 32 -63 35 -257 149 -377 220 -95 56 -219 155 -281 222
-24 26 -59 79 -78 119 -47 99 -164 458 -171 525 l-6 56 31 -22 c51 -37 135
-72 172 -72 l35 1 -30 21 c-87 62 -165 173 -196 276 -10 35 -10 45 1 55 10 9
13 9 17 0 3 -7 10 -13 17 -13 6 0 25 -22 41 -50 17 -27 34 -50 39 -50 6 0 5 5
-2 12 -7 7 -12 17 -12 22 0 6 20 -10 45 -34 24 -24 47 -41 50 -39 2 3 -5 32
-16 65 -29 81 -37 164 -17 178 8 6 18 22 21 36 8 30 115 144 172 182 44 30
124 49 168 41 16 -3 38 -19 50 -34 24 -34 42 -38 34 -8 -3 12 -4 19 -2 17 2
-1 41 -39 86 -83 45 -44 77 -70 70 -58 -19 37 -18 37 49 15 8 -2 -6 9 -32 26
-41 27 -68 57 -68 77 0 3 14 -2 31 -10 17 -9 33 -14 35 -12 11 10 -108 105
-169 135 -38 18 -67 39 -67 47 0 19 8 19 55 -1 61 -25 63 -10 2 19 -62 29 -74
45 -84 113 -5 42 -4 46 13 41 59 -17 64 -15 23 7 -46 25 -46 26 -53 87 -3 34
-6 87 -6 118 l1 56 18 -37 c10 -20 26 -58 35 -85 28 -81 118 -234 175 -295 74
-81 330 -248 361 -236 4 2 -23 37 -61 78 -89 96 -144 174 -179 258 -31 74 -66
187 -75 242 -6 34 -6 33 14 -10 11 -25 30 -72 43 -105 64 -163 195 -312 358
-406 49 -28 91 -57 94 -65 4 -9 21 -14 51 -14 43 0 45 -1 35 -21 -22 -40 2
-33 43 13 23 26 64 61 91 77 48 30 50 30 77 14 36 -22 36 -28 0 -42 -112 -47
-170 -232 -122 -389 12 -39 26 -74 33 -78 7 -5 9 -2 5 8 -31 82 -32 148 -3
148 8 0 26 14 39 30 14 17 30 30 36 30 5 0 9 9 8 19 -1 14 -13 23 -43 30 -50
13 -64 39 -40 76 21 32 68 33 97 4 18 -18 20 -28 14 -84 -9 -82 -2 -105 35
-105 15 0 30 7 34 15 8 21 33 19 46 -5 14 -27 30 -16 30 19 0 15 3 30 6 34 10
9 121 -52 128 -70 4 -9 4 -31 0 -49 -4 -21 -2 -34 4 -34 14 0 26 119 17 177
-9 63 -37 127 -76 170 -28 33 -29 37 -15 51 15 15 21 11 77 -43 52 -52 59 -64
55 -88 -5 -25 -3 -27 14 -22 16 5 23 0 35 -29 8 -19 15 -46 15 -59 0 -32 -39
-180 -51 -192 -5 -5 -9 -15 -9 -23 0 -23 23 1 71 75 43 66 61 71 40 11 -19
-54 -5 -41 23 22 15 33 29 60 32 60 3 0 14 -5 25 -10 15 -8 19 -7 19 5 0 8 7
15 16 15 11 0 14 6 9 20 -6 18 -2 20 34 20 35 0 41 -3 41 -22 0 -48 -44 -179
-95 -284 -85 -173 -174 -258 -296 -284 -40 -8 -37 -9 28 -6 101 5 184 45 279
138 41 39 76 69 79 67 8 -9 -86 -166 -132 -218 -24 -28 -41 -51 -38 -51 4 0
29 16 55 35 54 40 65 43 50 16 -5 -11 -10 -22 -10 -24 0 -2 34 -3 75 -3 l75 1
0 -37 c0 -33 -4 -40 -45 -63 -67 -40 -103 -47 -155 -31 -35 10 -44 18 -42 32
3 22 -15 -6 -77 -116 -95 -170 -151 -225 -350 -343 -151 -90 -267 -150 -421
-217 -63 -27 -105 -50 -94 -50 24 0 154 58 358 161 76 38 140 68 143 66 2 -2
-3 -46 -12 -98 -8 -52 -15 -102 -15 -111 0 -17 25 -18 385 -18 l385 0 0 1280
0 1280 -211 0 -212 0 7 -37 c13 -78 19 -280 9 -286 -13 -8 -16 2 -44 181 -21
131 -24 142 -44 142 l-21 0 17 -107 c10 -63 14 -112 9 -117 -6 -6 -11 -4 -15
5 -28 77 -45 137 -45 160 0 64 62 59 -756 59 l-744 0 0 -110 c0 -68 7 -148 20
-212 11 -57 20 -106 20 -109 0 -4 -46 -9 -102 -12 -59 -3 -124 -12 -151 -22
-26 -10 -51 -14 -55 -11 -9 10 25 167 54 251 13 38 42 105 63 148 l38 77 -80
0 c-64 0 -82 -3 -93 -17 -13 -17 -13 -17 -14 0 0 13 -6 17 -21 15 -16 -2 -27
-17 -42 -55 -11 -29 -24 -53 -29 -53 -6 0 -7 7 -4 16 3 9 9 33 12 55 l7 39
-67 0 -66 0 0 -1280z m2409 1129 c13 -61 14 -99 2 -99 -14 0 -22 28 -28 99 -7
77 10 78 26 0z m-925 -342 c17 -28 23 -48 16 -52 -17 -10 -11 -25 9 -25 11 0
33 -18 50 -42 29 -39 30 -44 15 -55 -9 -7 -21 -10 -26 -7 -25 16 -84 140 -122
258 -24 74 -19 89 8 25 13 -31 35 -77 50 -102z m355 96 l21 -43 -25 0 c-23 0
-25 3 -25 47 0 53 0 53 29 -4z m-1301 -69 c25 -5 34 -14 43 -43 6 -20 27 -66
46 -104 24 -48 30 -69 21 -71 -7 -2 -33 -9 -58 -16 -73 -19 -150 -69 -222
-143 -62 -64 -88 -76 -88 -42 0 20 86 92 158 132 35 19 61 38 58 40 -8 8 -114
-56 -173 -104 -53 -43 -53 -43 -62 -21 -23 62 -48 279 -36 317 5 18 56 43 110
54 32 7 170 8 203 1z m1358 -61 c16 -40 41 -131 46 -173 2 -18 -1 -24 -12 -22
-8 2 -38 6 -67 9 l-52 6 -3 76 c-2 42 -1 91 1 109 3 29 6 32 37 32 30 0 36 -5
50 -37z m317 -102 c0 -91 -17 -211 -30 -211 -4 0 -30 19 -60 41 l-53 42 27 46
c15 25 33 58 41 73 7 15 17 30 22 33 4 3 14 28 21 55 19 73 32 40 32 -79z
m-745 -29 c32 -31 70 -65 85 -75 35 -23 34 -42 -3 -57 -16 -7 -30 -16 -30 -21
0 -12 3 -11 36 6 29 15 64 20 64 9 0 -3 -8 -19 -17 -35 -20 -34 -76 -50 -98
-28 -30 30 -135 274 -135 312 0 7 9 -3 20 -21 11 -18 46 -59 78 -90z m182 -73
c0 -19 -40 -15 -60 6 -21 22 -21 24 -3 33 14 8 23 6 41 -10 12 -12 22 -25 22
-29z m-1470 -52 c57 -117 58 -121 30 -114 -20 5 -20 4 -7 -11 12 -13 13 -22 5
-37 -11 -19 -10 -19 9 -2 42 37 68 6 34 -41 -24 -34 -89 -68 -102 -55 -21 21
-41 354 -21 353 4 -1 27 -42 52 -93z m2166 6 c-2 -10 -8 -34 -11 -53 -10 -48
-44 -112 -57 -108 -32 11 -29 35 14 105 41 69 65 94 54 56z m-206 -52 c33 -29
42 -42 34 -51 -8 -8 -26 2 -68 40 -31 29 -53 56 -50 61 7 12 29 -1 84 -50z
m309 -113 c-4 -62 -8 -121 -8 -130 -2 -39 -128 -10 -155 34 -8 13 -7 21 2 30
10 10 18 7 38 -17 25 -29 25 -29 10 -3 -22 37 -20 54 6 72 12 9 19 18 16 22
-4 3 13 37 38 75 24 38 44 75 45 82 1 6 4 -3 9 -20 4 -18 4 -83 -1 -145z
m-526 140 c22 -11 24 -53 1 -44 -9 3 -33 9 -55 12 -32 5 -39 11 -39 30 0 21 3
22 38 17 20 -3 45 -10 55 -15z m332 -138 c3 -5 -3 -10 -14 -10 -12 0 -21 5
-21 10 0 6 6 10 14 10 8 0 18 -4 21 -10z m-411 -53 c14 -23 -10 -40 -36 -26
-15 8 -16 14 -7 30 12 23 27 21 43 -4z m-1654 -73 c0 -3 -5 -15 -11 -26 -9
-17 -13 -18 -20 -7 -15 23 -10 39 11 39 11 0 20 -3 20 -6z m2300 -504 c0 -5
-2 -10 -4 -10 -3 0 -8 5 -11 10 -3 6 -1 10 4 10 6 0 11 -4 11 -10z m-2 -87
l-3 -58 -44 0 c-24 0 -46 5 -48 11 -6 19 58 104 78 104 18 0 20 -6 17 -57z
m-2269 -34 c1 -4 -6 -9 -14 -13 -12 -4 -15 4 -14 42 l1 47 13 -35 c7 -19 14
-38 14 -41z"/>
<path d="M565 1721 c-144 -66 -203 -263 -124 -415 23 -46 64 -92 94 -108 11
-6 1 8 -22 31 -39 39 -60 87 -54 121 3 16 16 32 77 94 l39 40 3 -40 c5 -54 14
-61 63 -39 41 19 42 19 56 0 12 -17 15 -18 23 -5 5 8 10 25 10 38 0 26 19 28
61 7 16 -9 34 -13 39 -10 6 4 10 -15 10 -46 0 -42 3 -50 13 -40 20 20 16 218
-7 261 -23 44 -73 97 -108 116 -38 20 -125 17 -173 -5z m-7 -114 c17 -14 15
-48 -7 -76 -34 -45 -101 -2 -87 55 10 39 57 49 94 21z m82 -28 c0 -10 -7 -19
-15 -19 -15 0 -21 31 -9 43 11 10 24 -3 24 -24z"/>
<path d="M1898 1163 c7 -3 16 -2 19 1 4 3 -2 6 -13 5 -11 0 -14 -3 -6 -6z"/>
<path d="M1096 600 c-88 -11 -103 -24 -85 -75 17 -47 88 -121 134 -141 95 -39
210 8 261 108 26 52 25 91 -4 103 -27 11 -231 14 -306 5z m282 -20 c28 0 32
-3 32 -26 0 -40 -39 -101 -83 -130 -74 -48 -160 -45 -222 9 l-39 33 20 27 c38
52 174 104 239 91 11 -2 35 -4 53 -4z"/>
</g>
</svg>
